<svg xmlns="http://www.w3.org/2000/svg" viewBox="0 0 128 128" width="128" height="128">
 <defs>
  <linearGradient id="frame" x1="0" y1="0" x2="1" y2="1"><stop offset="0" stop-color="#8fbf55"/><stop offset=".55" stop-color="#5f9a3e"/><stop offset="1" stop-color="#3f7a30"/></linearGradient>
  <linearGradient id="sky" x1="0" y1="0" x2="0" y2="1"><stop offset="0" stop-color="#bfe6f5"/><stop offset="1" stop-color="#fff8df"/></linearGradient>
  <radialGradient id="sun" cx=".4" cy=".35" r=".8"><stop offset="0" stop-color="#fff0a8"/><stop offset=".6" stop-color="#f6c744"/><stop offset="1" stop-color="#d48d1c"/></radialGradient>
 </defs>
 <ellipse cx="64" cy="121" rx="34" ry="5.5" fill="#6b4a1e" opacity=".18"/>
 <rect x="30" y="8" width="68" height="108" rx="14" fill="url(#frame)" stroke="#2f5f25" stroke-width="3"/>
 <rect x="37" y="20" width="54" height="80" rx="6" fill="url(#sky)" stroke="#2f5f25" stroke-width="2"/>
 <circle cx="78" cy="36" r="8" fill="url(#sun)" stroke="#a9701a" stroke-width="1.8"/>
 <path d="M37 78c10-8 22-10 32-6 8 3 14 3 22-1v29H37z" fill="#6fb04a" stroke="#3f7a30" stroke-width="2" stroke-linejoin="round"/>
 <path d="M37 90c12-5 24-4 34 0 7 3 13 3 20 0v10H37z" fill="#8fc95e"/>
 <rect x="50" y="52" width="26" height="22" fill="#d9503a" stroke="#8a2c1c" stroke-width="2"/>
 <path d="M46 54l17-14 17 14z" fill="#a63a28" stroke="#6d2214" stroke-width="2" stroke-linejoin="round"/>
 <rect x="58" y="60" width="10" height="14" rx="1.5" fill="#fff3d0" stroke="#8a2c1c" stroke-width="1.6"/>
 <path d="M58 60l10 14M68 60L58 74" stroke="#8a2c1c" stroke-width="1.3"/>
 <rect x="52" y="12" width="24" height="4.5" rx="2.2" fill="#2f5f25" opacity=".55"/>
 <circle cx="64" cy="108" r="3.2" fill="#d8efae" stroke="#2f5f25" stroke-width="1.4"/>
 <path d="M32 28c2-8 8-14 16-16" stroke="#d8efae" stroke-width="3.4" stroke-linecap="round" fill="none" opacity=".6"/>
 <path d="M108 22l2.6 6.4 6.4 2.6-6.4 2.6-2.6 6.4-2.6-6.4-6.4-2.6 6.4-2.6z" fill="#fff0a8" stroke="#d6941f" stroke-width="1.4" stroke-linejoin="round"/>
</svg>
